<?xml version="1.0" encoding="utf-8"?>
<!-- Generator: Adobe Illustrator 23.0.4, SVG Export Plug-In . SVG Version: 6.00 Build 0)  -->
<svg version="1.1" id="Layer_1" xmlns="http://www.w3.org/2000/svg" xmlns:xlink="http://www.w3.org/1999/xlink" x="0px" y="0px"
	 viewBox="0 0 360 360" style="enable-background:new 0 0 360 360;" xml:space="preserve">
<style type="text/css">
	.st0{fill:#A43040;}
	.st1{fill:#CE1F42;}
	.st2{fill-rule:evenodd;clip-rule:evenodd;fill:#00539A;}
	.st3{fill:#00539A;}
	.st4{fill:#FFC748;}
</style>
<path class="st0" d="M180.02,80.19v0.03l-0.04-0.03L51.23,104.86c0,0,0,175.13,128.77,242.54
	C308.77,280,308.77,104.86,308.77,104.86L180.02,80.19z M180,330.83C67.03,271.78,67.03,118.38,67.03,118.38l112.95-21.61l0.04,0.03
	v-0.03l112.95,21.61C292.97,118.38,292.97,271.78,180,330.83z"/>
<path class="st1" d="M180.02,80.19v0.03l-0.04-0.03L51.23,104.86c0,0,0,175.13,128.77,242.54
	C308.77,280,308.77,104.86,308.77,104.86L180.02,80.19z M180,330.83C67.03,271.78,67.03,118.38,67.03,118.38l112.95-21.61l0.04,0.03
	v-0.03l112.95,21.61C292.97,118.38,292.97,271.78,180,330.83z"/>
<g>
	<path class="st2" d="M192.46,285.92c-1.56,0-2.36,1.57-2.74,3.54c-1.88-1.97-2.66-4.71-2.66-7.07c1.48,0,2.75,0.59,4.22,1.47
		c0-2.55-2.16-3.83-4.22-3.83c0-3.33,3.24-6.57,7.75-6.57c7.17,0,9.82,4.02,9.82,10.49c3.82-2.26,7.36-8.15,7.36-13.64
		c0-5.49-4.33-10.59-9.82-10.59c-8.04,0-11.38,3.04-15.01,7.95c-2.84,3.82-3.63,10.01-3.63,12.36h-1.56c0-5.6,2.54-11.18,5.09-15.99
		c1.18-2.26,2.55-5,2.55-7.45c0-2.94-1.37-6.19-3.34-9.72c-1.86-3.43-4.51-8.53-6.28-12.85c-1.77,4.32-4.42,9.42-6.28,12.85
		c-1.96,3.54-3.34,6.78-3.34,9.72c0,2.45,1.38,5.2,2.55,7.45c2.55,4.81,5.1,10.4,5.1,15.99h-1.56c0-2.36-0.78-8.54-3.63-12.36
		c-3.63-4.91-6.97-7.95-15.01-7.95c-5.5,0-9.81,5.1-9.81,10.59c0,5.49,3.54,11.38,7.36,13.64c0-6.47,2.65-10.49,9.81-10.49
		c4.52,0,7.75,3.24,7.75,6.57c-2.05,0-4.22,1.27-4.22,3.83c1.46-0.88,2.74-1.47,4.22-1.47c0,2.35-0.78,5.1-2.65,7.07
		c-0.39-1.97-1.18-3.54-2.75-3.54c-1.87,0-3.63,2.06-3.63,4.31c0,2.36,1.38,4.22,3.73,4.22c3.93,0,8.05-4.99,8.44-12.06h1.96
		c0,2.45-0.19,4.42-0.78,5.89c-0.4,1.07-0.78,2.05-0.78,3.04c0,1.37,1.96,6.28,3.53,9.81c1.57-3.53,3.53-8.44,3.53-9.81
		c0-0.98-0.39-1.96-0.78-3.04c-0.59-1.47-0.78-3.44-0.78-5.89h1.96c0.39,7.07,4.51,12.06,8.43,12.06c2.35,0,3.73-1.85,3.73-4.22
		C196.09,287.98,194.33,285.92,192.46,285.92z"/>
</g>
<path class="st0" d="M253.29,260.46"/>
<g>
	<polygon class="st3" points="162.49,76.29 180,40.81 197.51,76.29 215.06,79.65 180,8.61 144.94,79.65 	"/>
	<path class="st3" d="M313.2,132.59c-0.54,4.34-1.2,9.03-2,13.99l17.98,2.61l-22.75,22.17c-1.95,8.68-4.32,17.82-7.18,27.24
		L360,139.39L313.2,132.59z"/>
	<path class="st3" d="M53.57,171.36l-22.75-22.17l17.98-2.61c-0.79-4.96-1.46-9.64-2-13.99L0,139.39l60.74,59.21
		C57.89,189.19,55.52,180.04,53.57,171.36z"/>
</g>
<g>
	<g>
		<path class="st3" d="M85.27,137.36c-0.05-0.23,0.04-0.38,0.27-0.43l0.97-0.21l14.03-3.38c1.68-0.43,3.52-0.86,5.51-1.29l5.49-1.2
			c5.09-1.11,8.96-1.75,11.61-1.93c2.64-0.18,5.26-0.28,7.84-0.31c2.58-0.03,5.47,0.56,8.66,1.77c3.19,1.21,6.09,2.87,8.7,5
			c5.53,4.56,8.99,10.03,10.39,16.41c1.39,6.38,0.97,12.47-1.26,18.26c-3.2,8.39-9.1,14.71-17.72,18.95c-2.74,1.33-5.64,2.33-8.68,3
			l-32.01,6.98c-0.23,0.05-0.38-0.04-0.43-0.27l-0.27-1.23c-0.05-0.23,0.04-0.38,0.27-0.43l0.97-0.21c5.33-1.16,7.62-3.44,6.88-6.84
			L96,141.88c-0.36-1.64-1.26-2.74-2.7-3.3c-1.44-0.56-2.95-0.67-4.53-0.32l-2.81,0.61c-0.23,0.05-0.38-0.04-0.43-0.27L85.27,137.36
			z M104.52,134.54c-0.73,0.16-1.01,0.63-0.84,1.42l11.71,53.7c0.47,2.17,2.75,2.85,6.84,2.05c1.21-0.23,2.47-0.49,3.79-0.78
			c9.34-2.04,16.11-6.26,20.31-12.66c4.2-6.4,5.35-13.96,3.45-22.67c-1.9-8.71-5.91-15.27-12.04-19.68
			c-6.13-4.41-13.22-5.74-21.27-3.99L104.52,134.54z"/>
		<path class="st3" d="M208.13,125.22c0.3,0.02,0.43,0.36,0.39,1.02l0.57,9.63c0.08,0.61,0.12,0.99,0.11,1.16
			c-0.01,0.16-0.25,0.23-0.71,0.2c-0.46-0.03-0.75-0.11-0.86-0.23c-0.11-0.13-0.22-0.34-0.32-0.63c-0.1-0.29-0.22-0.62-0.37-0.99
			s-0.29-0.74-0.45-1.11c-0.54-1.41-1.44-2.84-2.7-4.27c-3.09-3.38-6.7-5.19-10.82-5.45c-2.48-0.16-4.88,0.5-7.19,1.98
			c-2.31,1.48-3.54,3.31-3.68,5.51c-0.14,2.2,0.15,4.13,0.87,5.8s1.71,3.23,2.97,4.69s2.72,2.87,4.37,4.24
			c1.66,1.37,3.34,2.75,5.05,4.15c4.55,3.62,7.75,6.67,9.6,9.16c2.91,3.85,4.36,8.05,4.34,12.61c-0.32,5.08-2.53,9.02-6.62,11.81
			c-4.09,2.79-8.73,4.02-13.9,3.7c-3.32-0.21-5.94-0.71-7.85-1.51c-1.92-0.8-3.24-1.37-3.97-1.71c-0.73-0.35-1.27-0.53-1.61-0.55
			c-0.34-0.02-0.56-0.02-0.65,0l-2.23,0.31c-0.39-0.02-0.61-0.35-0.66-0.99c-0.4-7.47-0.59-11.44-0.56-11.9
			c0.03-0.46,0.09-0.77,0.17-0.94c0.08-0.16,0.29-0.23,0.62-0.21c0.84,0.05,1.52,1.3,2.06,3.73c2.72,6.93,7.72,10.62,15.02,11.08
			c3.35,0.21,6.28-0.63,8.78-2.51s3.86-4.46,4.06-7.71c0.33-5.2-2.48-10.24-8.42-15.12c-1.69-1.37-4.12-3.28-7.29-5.73
			c-3.18-2.45-5.68-4.86-7.52-7.23c-2.86-3.66-4.16-7.62-3.89-11.88c0.27-4.26,2.18-7.65,5.75-10.15c3.56-2.51,7.54-3.62,11.94-3.35
			c2.27,0.14,4.75,0.69,7.44,1.64c2.69,0.95,4.56,1.59,5.62,1.93L208.13,125.22z"/>
		<path class="st3" d="M256.61,164.8c3.81,1.26,6.33,0.03,7.57-3.7c0.08-0.23,0.23-0.3,0.45-0.23l1.02,0.34
			c0.23,0.08,0.3,0.23,0.23,0.45l-5.25,15.87c-0.08,0.23-0.23,0.3-0.45,0.23l-1.02-0.34c-0.23-0.08-0.3-0.23-0.23-0.45
			c0.87-2.62,0.72-4.67-0.43-6.15c-0.62-0.8-1.67-1.45-3.15-1.94l-16.81-5.56c-0.68-0.23-1.15,0.05-1.41,0.81l-7.25,21.93
			c-0.64,1.93,0.05,3.75,2.06,5.44c2.01,1.69,3.32,2.64,3.94,2.84c0.61,0.2,0.88,0.42,0.8,0.64l-0.34,1.02
			c-0.08,0.23-0.23,0.3-0.45,0.23l-23.3-7.7c-0.23-0.08-0.3-0.23-0.23-0.45l0.34-1.02c0.08-0.23,0.35-0.26,0.84-0.1
			s1.31,0.18,2.49,0.06c1.17-0.12,2.3-0.49,3.38-1.13c1.08-0.64,1.83-1.6,2.25-2.88l15.23-46.08c0.61-1.85,0.07-3.5-1.63-4.94
			c-0.98-0.86-2.02-1.47-3.13-1.84l-0.17-0.06c-0.23-0.08-0.3-0.23-0.23-0.45l0.34-1.02c0.08-0.23,0.23-0.3,0.45-0.23l40.24,13.3
			c0.32,0.17,0.55,0.33,0.69,0.49c0.14,0.16,0.14,0.43,0.01,0.83l-3.41,10.33c-0.11,0.34-0.23,0.54-0.36,0.59s-0.32,0.04-0.58-0.05
			l-0.51-0.17c-0.05-0.05,0.02-0.89,0.19-2.52c0.18-1.63,0.06-2.97-0.35-4.02c-0.75-1.64-1.85-2.77-3.28-3.4
			c-0.58-0.25-1.29-0.52-2.15-0.8l-16.17-5.35c-0.57-0.19-0.95,0-1.14,0.57l-6.53,19.76c-0.22,0.65,0.02,1.09,0.7,1.32L256.61,164.8
			z"/>
	</g>
</g>
<polygon class="st4" points="147.84,206.71 150.22,214.04 157.93,214.04 151.7,218.58 154.08,225.91 147.84,221.38 141.6,225.91 
	143.99,218.58 137.75,214.04 145.46,214.04 "/>
<polygon class="st4" points="116.05,214.7 118.44,222.03 126.15,222.03 119.91,226.57 122.29,233.9 116.05,229.37 109.82,233.9 
	112.2,226.57 105.96,222.03 113.67,222.03 "/>
<polygon class="st4" points="211.41,206.71 213.79,214.04 221.5,214.04 215.27,218.58 217.65,225.91 211.41,221.38 205.18,225.91 
	207.56,218.58 201.32,214.04 209.03,214.04 "/>
<polygon class="st4" points="179.63,202.72 182.01,210.06 189.72,210.06 183.48,214.59 185.86,221.92 179.63,217.39 173.39,221.92 
	175.77,214.59 169.53,210.06 177.24,210.06 "/>
<polygon class="st4" points="243.2,214.7 245.58,222.03 253.29,222.03 247.05,226.57 249.43,233.9 243.2,229.37 236.96,233.9 
	239.34,226.57 233.11,222.03 240.82,222.03 "/>
</svg>
